<svg width="25" height="25" viewBox="0 0 25 25" fill="none" xmlns="http://www.w3.org/2000/svg">
<circle cx="12.5" cy="12.5" r="12.5" fill="#D54B3D" fill-opacity="0.1"/>
<g clip-path="url(#clip0)">
<path d="M20.1186 18.7239H5.43996C4.87083 18.7239 4.3916 18.2701 4.3916 17.6991V7.33346C4.39154 6.77709 4.8558 6.30859 5.43996 6.30859H20.1186C20.6877 6.30859 21.1671 6.76246 21.1671 7.33346V17.6991C21.1671 18.2701 20.7027 18.7239 20.1186 18.7239Z" fill="#E3E3E3"/>
<path opacity="0.1" d="M6.48853 18.7239L12.7644 13.7899L12.8093 13.5264L6.33876 8.97314L6.32373 18.5043L6.48853 18.7239Z" fill="#231F20"/>
<path d="M5.44003 18.7239C4.85586 18.7239 4.3916 18.27 4.3916 17.699V7.31872C4.3916 6.74778 4.85586 6.64526 5.44003 6.64526C6.02419 6.64526 6.48852 6.7624 6.48852 7.31872V18.7239H5.44003Z" fill="#D54B3D"/>
<path d="M5.43996 6.79166C6.18885 6.79166 6.33869 7.01131 6.33869 7.31872V18.5775H5.43996C4.94571 18.5775 4.5413 18.1822 4.5413 17.699V7.31872C4.5413 6.99662 4.69107 6.79166 5.43996 6.79166ZM5.43996 6.64526C4.8558 6.64526 4.3916 6.7624 4.3916 7.31872V17.6991C4.3916 18.2701 4.85586 18.7239 5.44003 18.7239H6.48845V7.31872C6.48845 6.74778 6.02413 6.64526 5.43996 6.64526Z" fill="#D72B27"/>
<path d="M20.1183 18.7239H19.0698V7.28946C19.0698 6.71846 19.5342 6.64526 20.1183 6.64526C20.7025 6.64526 21.1668 6.71846 21.1668 7.28946V17.7137C21.1668 18.27 20.7025 18.7239 20.1183 18.7239Z" fill="#D54B3D"/>
<path d="M20.1183 6.79166C20.7923 6.79166 21.017 6.92342 21.017 7.28946V17.7137C21.017 18.1968 20.6126 18.5921 20.1183 18.5921H19.2196V7.28946C19.2196 6.90879 19.4443 6.79166 20.1183 6.79166ZM20.1183 6.64526C19.5342 6.64526 19.0698 6.71846 19.0698 7.28946V18.7386H20.1183C20.7025 18.7386 21.1668 18.2846 21.1668 17.7137V7.28946C21.1668 6.71846 20.7025 6.64526 20.1183 6.64526Z" fill="#D72B27"/>
<path d="M15.6249 18.7239L4.479 7.7445L5.06528 7.97755L12.824 13.4386L21.1668 7.45874V17.7137C21.1668 18.27 20.7025 18.7239 20.1183 18.7239H15.6249Z" fill="url(#paint0_linear)"/>
<path d="M12.764 13.7898L4.84053 8.16779C4.3762 7.83107 4.2414 7.18687 4.58589 6.733C4.93051 6.27913 5.60445 6.17668 6.08374 6.51341L12.779 11.2717L19.5191 6.45478C19.9834 6.11805 20.6425 6.22056 20.9869 6.68906C21.3314 7.14292 21.2266 7.78712 20.7473 8.12385L12.7639 13.7898L12.764 13.7898Z" fill="#D54B3D"/>
<path d="M20.1179 6.39639C20.4025 6.39639 20.6721 6.52816 20.8518 6.76237C21.1364 7.15773 21.0465 7.69942 20.6571 7.99227L12.7636 13.6143L4.93006 8.05084C4.52565 7.75799 4.42078 7.20161 4.70534 6.82101C4.87014 6.60135 5.15471 6.45503 5.45424 6.45503C5.64896 6.45503 5.84368 6.51353 5.99345 6.63067L12.6738 11.3742L12.7636 11.4329L12.8535 11.3742L19.5787 6.55747C19.7435 6.45503 19.9232 6.39639 20.1179 6.39639ZM20.1179 6.25C19.9082 6.25 19.6835 6.30857 19.5038 6.44034L12.7636 11.2571L6.06833 6.4989C5.8887 6.36714 5.66405 6.30857 5.43934 6.30857C5.10982 6.30857 4.78029 6.45496 4.57061 6.73318C4.24108 7.18698 4.37589 7.83119 4.84021 8.16791L12.7637 13.8046L20.732 8.12403C21.1963 7.78731 21.3012 7.15773 20.9717 6.68924C20.762 6.39639 20.4474 6.25 20.1179 6.25Z" fill="#D72B27"/>
</g>
<defs>
<linearGradient id="paint0_linear" x1="4.47967" y1="13.0911" x2="21.1721" y2="13.0911" gradientUnits="userSpaceOnUse">
<stop stop-opacity="0.1"/>
<stop offset="1" stop-opacity="0.2"/>
</linearGradient>
<clipPath id="clip0">
<rect width="16.875" height="12.5" fill="white" transform="translate(4.375 6.25)"/>
</clipPath>
</defs>
</svg>
