<svg width="34" height="34" viewBox="0 0 34 34" fill="none" xmlns="http://www.w3.org/2000/svg">
<path d="M30.8908 14.2254H29.7497V14.1666H16.9997V19.8333H25.006C23.8379 23.132 20.6993 25.4999 16.9997 25.4999C12.3055 25.4999 8.49967 21.694 8.49967 16.9999C8.49967 12.3058 12.3055 8.49992 16.9997 8.49992C19.1665 8.49992 21.1378 9.31734 22.6387 10.6525L26.6458 6.6455C24.1156 4.28746 20.7312 2.83325 16.9997 2.83325C9.17613 2.83325 2.83301 9.17638 2.83301 16.9999C2.83301 24.8235 9.17613 31.1666 16.9997 31.1666C24.8232 31.1666 31.1663 24.8235 31.1663 16.9999C31.1663 16.05 31.0686 15.1228 30.8908 14.2254Z" fill="#FFC107"/>
<path d="M4.4668 10.406L9.12126 13.8195C10.3807 10.7014 13.4308 8.49992 17 8.49992C19.1668 8.49992 21.1381 9.31733 22.6391 10.6525L26.6461 6.6455C24.116 4.28746 20.7316 2.83325 17 2.83325C11.5586 2.83325 6.83971 5.90529 4.4668 10.406Z" fill="#FF3D00"/>
<path d="M17.0001 31.1667C20.6593 31.1667 23.9842 29.7663 26.4981 27.489L22.1135 23.7787C20.6434 24.8968 18.847 25.5015 17.0001 25.5C13.3153 25.5 10.1866 23.1505 9.00793 19.8716L4.38818 23.431C6.73277 28.0188 11.4942 31.1667 17.0001 31.1667Z" fill="#4CAF50"/>
<path d="M30.8911 14.2255H29.75V14.1667H17V19.8334H25.0063C24.4476 21.4034 23.4411 22.7752 22.1113 23.7795L22.1135 23.7781L26.498 27.4884C26.1878 27.7703 31.1667 24.0834 31.1667 17.0001C31.1667 16.0502 31.0689 15.123 30.8911 14.2255Z" fill="#1976D2"/>
</svg>
