<svg width="71" height="51" viewBox="0 0 71 51" fill="#E5E5E5" xmlns="http://www.w3.org/2000/svg">
<path d="M64.3919 0.0867722C67.1973 -0.386723 69.5863 1.48574 69.7178 4.28366L70.8794 27.528C71.0109 30.3259 68.863 32.9947 66.0576 33.4897L35.5711 38.7627C33.6643 39.0856 31.1438 40.8504 30.1137 42.6153L26.3659 48.9214C25.6646 50.1051 24.9194 50.7723 24.1304 50.9014C23.692 50.966 23.2756 50.8799 22.9688 50.6217C22.4428 50.2127 22.1798 49.4379 22.1359 48.2757L21.9825 44.2079C21.9606 43.3901 21.6099 42.6798 21.0182 42.2063C20.4264 41.7328 19.6593 41.5391 18.8484 41.6898L6.55293 43.8205C3.70372 44.2725 1.31477 42.4 1.16135 39.5806L-0.000251911 16.3578C-0.131754 13.5599 2.01611 10.8911 4.82149 10.3961L64.3919 0.0867722ZM68.8411 27.8723L67.6795 4.62802C67.5918 2.94927 66.1672 1.80857 64.4796 2.10989L4.93108 12.4192C3.24347 12.699 1.95036 14.3132 2.03803 15.9919L3.19963 39.2362C3.2873 40.915 4.71191 42.0557 6.39951 41.7544L18.695 39.6236C20.0538 39.3869 21.3469 39.7097 22.3332 40.5061C23.3414 41.3024 23.9112 42.4861 23.955 43.8421L24.1085 47.9098C24.1304 48.2327 24.1523 48.4479 24.1961 48.5985C24.3057 48.4694 24.4591 48.2757 24.6125 47.9744L28.3823 41.6683C29.785 39.3223 32.8753 37.1486 35.4395 36.6966L65.9261 31.4236C67.6356 31.1653 68.9287 29.5511 68.8411 27.8723Z" fill="white"/>
</svg>
