<svg width="83" height="68" viewBox="0 0 83 68" fill="#E5E5E5" xmlns="http://www.w3.org/2000/svg">
<path d="M7.23491 17.0085C4.40257 17.2772 2.57965 19.7042 3.17679 22.4408L8.07084 45.1938C8.66798 47.9304 11.4334 49.9523 14.2713 49.7044L45.0838 46.9072C47.0092 46.7256 49.9005 47.7779 51.3523 49.216L56.6045 54.3373C57.5884 55.2991 58.4808 55.7507 59.2764 55.6713C59.7165 55.6202 60.0965 55.4292 60.326 55.1004C60.7282 54.5692 60.7817 53.7527 60.5233 52.6188L59.6187 48.6499C59.4281 47.8543 59.5831 47.0775 60.0321 46.4669C60.4811 45.8564 61.172 45.4708 61.9943 45.4064L74.4222 44.2822C77.2913 43.9814 79.1142 41.5544 78.5327 38.7913L73.6442 16.0592C73.0471 13.3226 70.2817 11.3006 67.4438 11.5485L7.23491 17.0085ZM10.1288 44.9988L5.23474 22.2459C4.88493 20.6017 5.96576 19.1311 7.67385 18.9854L67.8615 13.5311C69.5641 13.3646 71.2309 14.5891 71.5807 16.2333L76.4748 38.9863C76.8246 40.6305 75.7437 42.101 74.0356 42.2468L61.6077 43.3709C60.2339 43.494 59.0684 44.1405 58.3218 45.1649C57.5541 46.1951 57.31 47.486 57.6186 48.807L58.5233 52.7759C58.5857 53.0934 58.6202 53.307 58.6168 53.4638C58.4776 53.3675 58.2792 53.2201 58.0531 52.9687L52.7796 47.8532C50.8176 45.9502 47.27 44.6503 44.6761 44.8774L13.8636 47.6746C12.1454 47.8676 10.4786 46.6431 10.1288 44.9988Z" fill="white"/>
</svg>
